<?xml version="1.0" standalone="no"?>
<!DOCTYPE svg PUBLIC "-//W3C//DTD SVG 20010904//EN"
 "http://www.w3.org/TR/2001/REC-SVG-20010904/DTD/svg10.dtd">
<svg version="1.0" xmlns="http://www.w3.org/2000/svg"
 width="1864.000000pt" height="1868.000000pt" viewBox="0 0 1864.000000 1868.000000"
 preserveAspectRatio="xMidYMid meet">

<g transform="translate(0.000000,1868.000000) scale(0.100000,-0.100000)"
fill="#000000" stroke="none">
<path d="M7721 11432 c-19 -9 -48 -34 -65 -55 -28 -35 -31 -46 -31 -105 0 -58
4 -72 30 -109 38 -53 80 -73 154 -73 103 0 171 72 171 181 0 105 -74 178 -180
179 -25 0 -60 -8 -79 -18z"/>
<path d="M3746 11407 c-77 -43 -81 -58 -84 -349 l-3 -256 -35 14 c-84 35 -223
65 -329 70 -341 17 -579 -142 -665 -446 -32 -113 -45 -344 -32 -543 12 -175
27 -238 83 -353 40 -81 157 -206 233 -247 267 -147 646 -120 966 67 44 25 82
55 90 71 13 24 15 156 15 954 l0 926 -24 39 c-44 71 -141 95 -215 53z m-346
-837 c71 -12 139 -31 213 -63 l47 -20 -2 -436 -3 -436 -45 -22 c-25 -12 -81
-34 -125 -49 -108 -37 -260 -39 -346 -5 -78 30 -140 87 -172 158 -41 93 -50
170 -45 406 4 177 8 221 25 268 58 167 215 236 453 199z"/>
<path d="M1495 10876 c-102 -17 -223 -50 -280 -77 -111 -52 -144 -170 -69
-244 48 -48 97 -53 199 -21 139 44 206 56 318 56 146 0 207 -18 268 -79 56
-55 69 -93 76 -225 l6 -99 -24 7 c-13 3 -78 16 -144 27 -171 30 -375 24 -490
-15 -100 -34 -156 -66 -221 -128 -147 -139 -186 -396 -90 -585 32 -64 112
-152 175 -192 222 -143 644 -130 961 29 41 21 89 52 105 70 l30 31 0 492 c0
542 -1 557 -61 683 -57 122 -171 207 -336 254 -94 27 -308 35 -423 16z m404
-927 l111 -22 0 -174 0 -174 -82 -39 c-166 -79 -400 -77 -521 3 -115 77 -133
263 -35 354 28 27 103 61 161 73 65 14 242 4 366 -21z"/>
<path d="M4765 10876 c-184 -31 -317 -82 -358 -138 -12 -16 -22 -49 -25 -82
-4 -52 -3 -56 34 -96 54 -58 93 -62 221 -22 139 43 191 52 298 52 180 0 267
-38 313 -138 22 -47 27 -75 30 -161 4 -97 3 -103 -14 -98 -109 32 -201 42
-369 42 -161 0 -188 -3 -255 -23 -239 -75 -370 -241 -373 -472 -4 -354 266
-562 698 -536 191 11 380 62 522 141 110 62 103 26 103 572 0 499 -5 569 -49
668 -60 135 -174 227 -342 275 -95 27 -318 35 -434 16z m406 -928 l109 -22 -2
-175 -3 -176 -65 -32 c-85 -42 -153 -56 -275 -57 -117 0 -187 15 -249 54 -87
56 -128 179 -91 276 57 150 263 197 576 132z"/>
<path d="M6470 10885 c-8 -2 -49 -9 -90 -15 -172 -28 -393 -123 -438 -190
l-22 -34 2 -662 c3 -651 3 -663 24 -690 33 -45 70 -67 122 -72 59 -5 105 14
142 61 l25 31 3 589 2 588 53 24 c134 61 360 79 467 37 92 -36 153 -98 191
-192 10 -28 15 -142 19 -537 5 -487 6 -502 26 -529 39 -53 70 -69 137 -69 74
0 114 24 143 82 17 35 18 75 18 543 0 438 -2 515 -17 580 -58 256 -229 409
-504 449 -64 10 -264 13 -303 6z"/>
<path d="M7725 10847 c-26 -14 -48 -37 -62 -67 l-23 -44 0 -691 c0 -651 1
-692 19 -731 51 -112 209 -126 279 -24 l22 33 0 723 0 723 -32 37 c-58 66
-132 81 -203 41z"/>
<path d="M8825 10836 c-245 -56 -420 -222 -482 -456 -14 -54 -17 -113 -18
-340 0 -256 2 -280 23 -353 69 -239 233 -404 462 -464 101 -27 304 -24 395 4
203 64 387 252 402 411 6 63 -22 102 -73 102 -55 0 -71 -15 -113 -103 -96
-200 -303 -299 -536 -256 -175 32 -303 148 -362 328 -20 61 -30 474 -14 581
36 235 228 390 483 390 206 0 365 -103 433 -282 23 -63 45 -81 97 -81 56 0 78
27 78 98 0 150 -173 335 -380 406 -82 28 -300 36 -395 15z"/>
<path d="M10361 10839 c-140 -27 -281 -106 -366 -202 -63 -72 -120 -186 -140
-282 -24 -110 -24 -535 -1 -643 68 -321 359 -531 703 -509 275 18 504 194 584
447 28 89 42 289 34 490 -7 186 -21 263 -65 353 -85 175 -247 301 -440 342
-77 16 -237 18 -309 4z m288 -174 c164 -43 273 -148 324 -310 20 -64 22 -90
22 -315 0 -174 -4 -261 -14 -300 -48 -194 -189 -330 -375 -361 -128 -22 -278
4 -372 64 -92 58 -168 167 -202 290 -25 92 -24 514 1 606 44 162 163 280 327
327 62 17 223 17 289 -1z"/>
<path d="M11990 10839 c-190 -33 -382 -108 -434 -169 l-26 -32 0 -681 0 -681
27 -28 c32 -34 79 -37 114 -9 l24 19 5 653 5 653 57 28 c108 53 221 80 363 85
82 4 151 1 187 -6 123 -26 225 -100 283 -206 51 -93 55 -136 55 -685 1 -381 4
-509 13 -521 34 -44 96 -51 132 -14 l25 24 0 538 c0 436 -3 551 -15 608 -44
209 -180 355 -382 411 -69 19 -348 28 -433 13z"/>
<path d="M13654 10835 c-171 -30 -358 -106 -409 -167 l-25 -30 0 -673 c0 -473
3 -681 11 -698 23 -51 96 -62 134 -21 l25 27 0 643 0 644 23 14 c26 18 142 63
212 83 72 20 299 29 377 13 173 -34 299 -165 327 -340 7 -39 11 -263 11 -560
1 -373 4 -499 13 -511 35 -45 97 -51 132 -13 l25 27 0 529 c0 591 -3 626 -66
755 -63 131 -172 220 -324 265 -87 27 -349 34 -466 13z"/>
<path d="M15346 10833 c-185 -39 -338 -158 -421 -326 -55 -112 -72 -194 -81
-394 -11 -254 22 -459 97 -598 42 -78 157 -192 234 -232 115 -60 200 -78 375
-77 163 1 248 14 368 56 122 43 168 113 112 173 -31 33 -61 32 -179 -6 -310
-99 -553 -71 -700 82 -28 29 -51 57 -51 61 0 5 -6 6 -12 2 -7 -4 -10 -4 -6 1
4 4 -2 25 -12 46 -30 59 -50 155 -50 247 l0 82 508 0 c443 0 510 2 530 16 12
8 22 12 22 8 0 -4 9 1 20 11 20 18 28 41 11 30 -5 -3 -13 0 -17 7 -4 7 -4 10
1 6 4 -4 15 -2 23 5 13 9 14 9 8 0 -4 -7 -3 -13 3 -13 18 0 23 66 18 208 -5
135 -29 258 -48 246 -5 -3 -6 1 -3 9 3 8 -3 23 -13 32 -10 10 -16 20 -14 23 8
8 -41 82 -50 76 -5 -3 -8 -2 -7 3 5 15 -65 94 -79 88 -8 -2 -12 -1 -9 4 10 15
-85 72 -108 65 -15 -4 -17 -3 -8 4 16 11 -74 47 -157 62 -76 14 -224 11 -305
-7z m309 -167 c61 -16 105 -38 166 -82 25 -18 50 -30 54 -26 5 4 5 2 1 -5 -4
-7 7 -31 23 -54 52 -71 73 -142 80 -266 l6 -112 -482 -1 -483 0 0 68 c0 82 30
208 65 270 14 24 22 49 18 55 -3 6 -1 7 6 3 7 -4 18 4 28 22 9 16 29 36 45 45
18 10 26 21 22 28 -4 7 -3 9 3 6 5 -3 32 5 60 19 28 13 69 28 90 33 59 14 242
12 298 -3z"/>
<path d="M16407 10809 c-20 -16 -26 -27 -21 -41 4 -13 2 -18 -4 -14 -7 4 -9
-3 -6 -21 5 -25 33 -69 71 -113 7 -8 24 -28 39 -45 14 -16 22 -24 18 -16 -4 9
-3 12 4 7 6 -4 9 -13 6 -20 -3 -7 2 -19 11 -26 13 -11 15 -10 10 3 -4 8 -2 18
3 21 5 3 8 -7 6 -23 -3 -21 6 -38 39 -71 23 -24 35 -40 27 -35 -8 4 -4 -5 10
-21 31 -36 42 -44 52 -38 4 3 5 -2 2 -10 -3 -8 12 -38 36 -70 38 -50 44 -54
64 -44 19 10 20 10 7 -5 -15 -19 -7 -52 10 -41 7 4 9 3 6 -3 -3 -5 14 -35 39
-66 49 -63 54 -85 24 -112 -11 -10 -18 -20 -15 -23 2 -3 -3 -11 -13 -18 -14
-11 -15 -15 -3 -23 9 -6 10 -11 2 -15 -6 -4 -11 -2 -11 5 0 7 -11 2 -25 -11
-14 -13 -23 -30 -21 -37 3 -7 0 -12 -7 -10 -7 1 -12 -6 -12 -15 0 -10 -9 -25
-20 -35 -19 -18 -19 -18 0 7 18 24 18 24 -10 -2 -26 -25 -27 -30 -16 -54 6
-15 10 -29 7 -31 -2 -2 -7 5 -11 16 -7 23 -20 27 -30 10 -4 -5 1 -20 12 -32
l18 -22 -22 19 c-21 17 -28 15 -24 -7 1 -5 -2 -6 -7 -3 -5 3 -24 -16 -42 -42
-18 -26 -44 -59 -58 -74 -13 -14 -21 -31 -18 -36 4 -6 1 -14 -5 -18 -8 -5 -9
-3 -4 7 20 32 -24 -13 -51 -54 -16 -23 -36 -47 -44 -54 -13 -10 -12 -14 5 -34
11 -13 14 -19 5 -14 -8 5 -20 10 -27 11 -17 3 -66 -64 -57 -78 4 -7 3 -8 -4
-4 -8 5 -12 -3 -12 -26 1 -40 22 -72 37 -57 8 8 11 6 10 -6 -2 -13 7 -18 35
-21 28 -3 43 1 67 22 17 14 30 34 29 43 -2 9 2 15 9 14 7 -2 27 19 44 45 18
26 43 59 57 74 22 24 23 29 11 45 -12 16 -12 17 2 5 13 -10 19 -10 28 2 7 9 8
17 2 20 -5 3 -12 0 -14 -6 -3 -7 -3 4 -1 25 3 29 1 36 -8 31 -7 -4 -9 -3 -5 1
11 12 38 15 31 4 -3 -6 0 -17 8 -26 9 -12 9 -15 1 -9 -7 4 -13 2 -13 -3 0 -14
13 -14 28 1 15 15 16 32 2 23 -16 -10 -11 1 7 16 14 12 16 12 8 0 -19 -32 14
1 41 41 16 24 37 52 47 63 10 10 16 28 15 40 -2 12 2 19 10 18 6 -2 12 5 13
15 0 10 3 12 6 4 5 -12 83 77 83 94 0 5 -7 1 -14 -9 -12 -16 -14 -16 -20 -2
-3 9 -2 13 3 10 5 -3 12 -1 16 5 4 6 10 8 15 5 4 -3 13 2 20 10 7 8 10 15 6
15 -3 0 3 9 14 20 11 11 17 26 14 35 -4 10 0 15 10 15 9 0 16 6 17 13 1 15 17
-23 18 -42 1 -10 -3 -9 -14 5 -8 10 -14 15 -14 9 0 -5 13 -27 28 -48 l29 -38
23 23 c12 13 19 18 15 11 -3 -6 1 -18 9 -26 22 -22 18 -33 -4 -13 -32 29 -36
-1 -4 -40 15 -20 35 -46 43 -58 37 -54 79 -98 89 -92 6 4 11 3 11 -3 0 -5 -5
-11 -11 -13 -6 -2 -2 -11 9 -21 15 -14 22 -15 28 -6 5 8 3 10 -6 4 -9 -5 -11
-4 -6 4 11 18 28 2 17 -16 -6 -12 4 -34 42 -85 l51 -68 15 25 c11 17 22 23 37
21 17 -3 24 2 29 21 9 37 -2 60 -37 72 -17 6 -34 9 -36 6 -3 -3 -2 -5 2 -5 4
0 -2 -10 -14 -22 -22 -24 -27 -44 -8 -32 7 5 9 2 5 -8 -3 -9 -1 -20 5 -26 6
-6 6 -12 -1 -16 -6 -4 -12 -5 -12 -2 -1 3 -3 11 -4 16 -1 6 -3 14 -4 20 0 5
-4 9 -8 9 -20 -3 -26 2 -13 11 13 9 13 11 0 19 -8 5 -18 7 -24 4 -5 -3 -6 -1
-2 5 4 7 16 12 27 12 11 0 17 -4 14 -10 -3 -5 -1 -10 5 -10 6 0 13 13 16 30 4
16 10 27 15 24 5 -3 9 1 9 8 1 9 5 8 14 -4 8 -11 20 -15 34 -11 13 3 22 1 22
-6 0 -7 -5 -9 -12 -5 -7 5 -3 -5 10 -20 12 -16 19 -33 15 -40 -3 -6 2 -3 12 6
17 16 16 19 -25 70 -27 34 -40 44 -35 29 5 -17 4 -21 -5 -16 -6 4 -10 17 -8
30 3 24 -19 58 -33 49 -5 -3 -6 1 -4 9 3 7 -7 23 -24 37 -17 12 -28 26 -26 31
3 4 0 11 -6 15 -8 4 -9 3 -5 -4 4 -7 2 -12 -3 -12 -6 0 -11 -5 -11 -11 0 -5 5
-7 12 -3 7 5 8 3 3 -6 -5 -8 -4 -11 3 -6 6 3 13 3 16 -2 2 -4 -4 -9 -15 -9
-23 -2 -37 40 -20 61 8 10 6 17 -8 30 -14 13 -21 14 -27 5 -5 -8 -3 -10 6 -4
8 5 11 4 7 -2 -8 -13 -60 -10 -64 3 -2 6 3 11 12 11 8 0 15 -5 15 -11 0 -5 6
-1 14 10 13 16 12 21 -2 35 -10 9 -24 14 -32 11 -12 -5 -13 -3 -4 9 10 11 0
29 -48 87 -57 71 -59 74 -42 93 15 17 15 19 0 25 -20 8 -21 34 0 34 9 0 12 -5
8 -12 -4 -7 -3 -8 4 -4 7 4 12 2 12 -4 0 -7 27 23 59 66 53 70 57 79 43 90
-10 7 -19 10 -22 8 -2 -3 2 -9 9 -13 10 -7 11 -13 2 -27 -11 -18 -11 -18 -9 1
2 11 -2 19 -9 18 -6 -2 -11 6 -10 16 1 20 25 24 46 7 11 -8 13 -8 7 2 -5 8 0
12 13 12 14 0 19 5 15 15 -3 8 1 29 10 46 22 44 21 99 -1 100 -10 1 -30 2 -45
3 -15 1 -31 6 -35 10 -4 5 -2 6 5 2 7 -4 12 -1 12 8 0 20 17 29 26 15 4 -8 3
-9 -4 -5 -7 4 -12 3 -12 -3 0 -5 5 -13 10 -16 6 -3 10 -1 10 5 0 6 3 9 8 7 4
-3 7 5 7 18 0 16 -4 21 -15 17 -16 -6 -9 5 35 57 11 13 14 21 7 17 -14 -8 -92
-112 -93 -123 0 -5 -8 -17 -17 -27 -9 -11 -12 -16 -5 -13 8 5 11 0 9 -15 -1
-13 -6 -23 -12 -23 -5 0 -8 6 -6 13 2 6 -1 12 -6 12 -14 0 -32 -23 -32 -41 0
-9 -7 -19 -15 -23 -8 -3 -15 -13 -15 -21 0 -9 -4 -14 -9 -11 -5 3 -16 -5 -25
-19 -20 -30 -21 -47 -1 -21 8 11 15 16 15 10 0 -5 7 -1 15 10 13 18 14 18 12
-2 0 -11 -5 -18 -9 -16 -4 3 -8 -2 -8 -10 0 -8 -5 -18 -12 -22 -7 -4 -8 -3 -4
4 5 8 0 11 -14 9 -29 -5 -45 -23 -29 -32 8 -5 10 -4 5 3 -9 14 3 15 24 2 10
-6 20 -4 30 5 14 12 16 12 16 -3 0 -15 -9 -17 -50 -16 -34 2 -53 -2 -60 -12
-9 -11 -25 4 -81 77 -122 159 -136 174 -162 173 -13 -1 -21 2 -17 5 3 3 10 6
15 6 13 0 8 17 -14 47 -12 16 -27 25 -39 23 -10 -2 -16 0 -13 6 4 5 11 7 16 4
5 -4 9 -4 9 -1 0 7 -128 177 -143 191 -6 6 -5 2 3 -8 9 -12 10 -21 3 -28 -8
-8 -13 -7 -18 2 -5 8 -4 10 3 5 16 -9 15 7 0 22 -7 7 -9 12 -5 12 4 0 3 9 -3
21 -7 13 -17 18 -27 15 -11 -4 -13 -2 -9 9 8 22 -29 55 -61 55 -16 0 -41 -10
-56 -21z m99 -24 c1 -9 -4 -11 -14 -7 -10 4 -12 7 -4 10 7 2 9 9 5 15 -3 7 -2
8 2 4 5 -4 10 -14 11 -22z m-49 9 c-3 -3 -12 -4 -19 -1 -8 3 -5 6 6 6 11 1 17
-2 13 -5z m-17 -120 c0 -8 -19 -13 -24 -6 -3 5 1 9 9 9 8 0 15 -2 15 -3z m171
-26 c11 -21 11 -22 -4 -9 -10 7 -17 17 -17 22 0 15 9 10 21 -13z m54 -50 c4 4
2 -3 -4 -15 -6 -13 -14 -23 -17 -23 -3 0 -2 5 1 10 4 6 1 19 -7 28 -11 15 -11
15 3 5 9 -7 19 -9 24 -5z m16 -37 c-7 -5 -11 -13 -7 -19 3 -6 2 -13 -2 -16 -5
-3 -8 5 -7 17 3 28 3 27 18 27 9 0 8 -3 -2 -9z m137 -186 c-3 -3 -9 2 -12 12
-6 14 -5 15 5 6 7 -7 10 -15 7 -18z m346 1 c-3 -9 3 -17 15 -21 23 -7 29 -25
8 -25 -8 0 -20 -11 -27 -25 -16 -29 -25 -32 -34 -9 -4 11 1 22 14 31 13 9 19
21 16 30 -3 8 -4 19 0 24 8 14 14 11 8 -5z m-304 -48 c0 -4 -4 -8 -10 -8 -5 0
-10 9 -10 21 0 13 -4 18 -12 13 -7 -5 -8 -3 -3 6 6 10 11 9 22 -5 7 -11 13
-22 13 -27z m-155 -8 c3 -5 1 -10 -4 -10 -6 0 -11 5 -11 10 0 6 2 10 4 10 3 0
8 -4 11 -10z m195 -45 c5 3 12 0 16 -6 5 -8 3 -9 -6 -4 -8 5 -11 3 -8 -6 3 -8
14 -12 24 -10 19 3 19 3 0 -18 -19 -21 -9 -30 11 -10 14 14 48 -34 39 -56 -3
-8 -1 -15 5 -15 6 0 8 -4 5 -9 -4 -5 0 -11 6 -14 7 -3 4 -5 -8 -4 -17 1 -20 6
-18 30 5 40 -13 72 -32 56 -11 -9 -17 -9 -29 1 -8 7 -14 18 -13 24 5 25 -14
56 -35 57 -20 1 -20 2 3 8 20 6 26 3 28 -11 2 -10 7 -16 12 -13z m298 23 c-6
-18 -28 -21 -28 -4 0 9 7 16 16 16 9 0 14 -5 12 -12z m-445 -23 c14 3 16 1 7
-10 -7 -8 -9 -19 -5 -25 14 -23 -3 -8 -25 23 -13 17 -17 27 -9 21 8 -6 22 -10
32 -9z m47 -9 c0 -2 -7 -7 -16 -10 -8 -3 -12 -2 -9 4 6 10 25 14 25 6z m400
-84 c-10 -15 -29 -38 -40 -52 l-21 -25 12 25 c6 14 18 33 27 43 9 10 11 17 4
17 -7 0 -17 -9 -24 -19 -13 -22 -38 -17 -37 8 0 10 2 11 6 4 2 -7 9 -13 15
-13 6 0 8 6 5 13 -3 9 5 13 27 13 20 0 30 4 28 13 -1 7 2 10 8 6 7 -4 3 -16
-10 -33z m-320 13 c-6 -8 -8 -20 -4 -27 6 -10 3 -9 -9 1 -18 14 -24 37 -8 26
5 -3 12 -1 16 5 3 5 9 10 12 10 3 0 0 -7 -7 -15z m158 -20 c-3 -3 -9 2 -12 12
-6 14 -5 15 5 6 7 -7 10 -15 7 -18z m-182 -17 c5 -7 3 -8 -6 -3 -9 6 -10 2 -5
-16 7 -23 7 -23 -8 -4 -11 15 -12 22 -4 27 15 10 15 10 23 -4z m164 -18 c0 -5
-2 -10 -4 -10 -3 0 -8 5 -11 10 -3 6 -1 10 4 10 6 0 11 -4 11 -10z m40 -30 c0
-5 -5 -10 -11 -10 -5 0 -7 5 -4 10 3 6 8 10 11 10 2 0 4 -4 4 -10z m20 -25
c-21 -25 -32 -17 -13 9 10 13 20 20 21 15 2 -5 -2 -16 -8 -24z m19 -26 l-21
-21 35 -37 c71 -72 98 -109 84 -114 -8 -3 -19 8 -26 25 l-14 30 -12 -30 c-7
-16 -18 -33 -25 -37 -7 -4 -4 5 6 20 14 22 15 31 6 46 -10 15 -9 19 0 19 9 0
9 3 0 12 -8 8 -15 9 -20 3 -4 -6 -16 -11 -27 -12 -15 -1 -21 4 -21 17 0 23 7
25 24 8 26 -26 19 0 -8 30 -16 17 -24 34 -19 37 5 4 9 0 10 -7 0 -7 4 -3 9 10
5 12 16 22 25 22 12 0 10 -5 -6 -21z m-39 -39 c0 -5 -2 -10 -4 -10 -3 0 -8 5
-11 10 -3 6 -1 10 4 10 6 0 11 -4 11 -10z m-192 -60 c-7 -10 -14 -17 -17 -15
-4 4 18 35 25 35 2 0 -1 -9 -8 -20z m302 -64 c0 -3 -4 -8 -10 -11 -5 -3 -10
-1 -10 4 0 6 5 11 10 11 6 0 10 -2 10 -4z m-327 -13 c-7 -2 -19 -2 -25 0 -7 3
-2 5 12 5 14 0 19 -2 13 -5z m49 -10 c10 -9 18 -12 18 -6 0 5 7 10 15 10 12 0
12 -3 -3 -17 -14 -14 -19 -15 -25 -4 -4 7 -15 18 -25 23 -9 6 -13 11 -8 11 5
0 18 -7 28 -17z m173 -5 c5 4 5 1 1 -6 -6 -10 -11 -10 -22 -1 -8 6 -14 14 -14
16 0 3 6 0 13 -6 8 -6 18 -7 22 -3z m165 -19 c0 -5 5 -7 12 -3 7 4 8 3 4 -4
-4 -6 -13 -9 -21 -5 -17 6 -20 23 -5 23 6 0 10 -5 10 -11z m-103 -56 c4 2 17
1 28 -3 17 -6 16 -8 -11 -11 -24 -4 -34 0 -49 21 l-19 25 22 -18 c11 -11 24
-17 29 -14z m73 -33 c0 -15 -7 -30 -15 -34 -11 -4 -15 2 -14 22 0 24 1 25 10
7 7 -16 9 -14 6 12 -2 18 0 30 5 27 4 -3 8 -18 8 -34z m-38 -22 c2 -17 9 -22
23 -20 15 2 17 0 6 -6 -9 -7 -10 -12 -2 -16 6 -4 11 -12 11 -18 0 -14 -33 20
-49 49 -13 26 -14 33 -2 33 5 0 11 -10 13 -22z m117 -67 c-2 -28 -6 -48 -10
-45 -4 2 -13 -4 -19 -13 -10 -16 -11 -16 -4 2 4 11 9 39 12 63 6 59 23 53 21
-7z m113 -27 c-4 -20 -23 -37 -31 -28 -3 3 1 9 9 14 10 6 11 10 3 10 -7 0 -10
7 -6 15 8 22 29 12 25 -11z m-629 -17 c-3 -4 -8 -6 -11 -3 -3 3 -11 1 -19 -6
-11 -8 -12 -7 -7 5 3 9 14 15 24 14 10 -1 16 -5 13 -10z m716 -91 c-3 -3 -11
5 -18 17 -13 21 -12 21 5 5 10 -10 16 -20 13 -22z m-859 -100 c0 -2 -8 -10
-17 -17 -16 -13 -17 -12 -4 4 13 16 21 21 21 13z m-250 -146 c6 -11 8 -20 6
-20 -3 0 -10 9 -16 20 -6 11 -8 20 -6 20 3 0 10 -9 16 -20z"/>
<path d="M17461 10793 c-2 -20 15 -23 35 -7 18 14 18 15 -3 5 -16 -8 -23 -8
-26 2 -4 9 -6 9 -6 0z"/>
<path d="M17580 10790 c-9 -6 -10 -10 -3 -10 6 0 15 5 18 10 8 12 4 12 -15 0z"/>
<path d="M17426 10743 c-6 -14 -5 -15 5 -6 7 7 10 15 7 18 -3 3 -9 -2 -12 -12z"/>
<path d="M17390 10705 c-11 -13 -11 -16 1 -13 25 5 17 -45 -9 -58 -17 -8 -19
-13 -9 -17 14 -5 54 31 49 46 -1 4 -4 16 -5 27 -4 28 -12 33 -27 15z"/>
<path d="M17359 10652 c-45 -49 -50 -59 -34 -59 8 0 12 4 9 9 -3 5 9 22 27 39
17 16 30 32 27 34 -2 3 -16 -8 -29 -23z"/>
<path d="M17553 10666 c1 -6 -3 -10 -9 -9 -6 1 -11 -3 -12 -10 -3 -33 -11 -52
-21 -49 -6 1 -11 -5 -11 -15 0 -14 2 -14 20 2 11 10 18 21 15 24 -6 10 13 36
26 36 7 0 13 7 14 16 2 9 -3 16 -11 16 -7 0 -12 -5 -11 -11z"/>
<path d="M17415 10610 c-3 -5 -2 -10 4 -10 5 0 13 5 16 10 3 6 2 10 -4 10 -5
0 -13 -4 -16 -10z"/>
<path d="M17444 10578 c0 -18 1 -18 13 -2 7 10 16 15 19 11 4 -4 1 -15 -7 -24
-13 -16 -12 -17 4 -4 22 17 17 36 -9 37 -13 1 -20 -5 -20 -18z"/>
<path d="M17304 10548 c-16 -18 -20 -26 -9 -18 11 8 24 21 29 29 7 11 10 11
17 0 6 -9 9 -10 9 -2 0 25 -18 21 -46 -9z"/>
<path d="M17473 10537 c-10 -13 -26 -23 -36 -21 -14 2 -16 -1 -7 -11 8 -9 4
-21 -16 -44 -14 -17 -22 -31 -17 -31 8 1 107 130 99 130 -3 0 -13 -11 -23 -23z"/>
<path d="M17377 10505 c3 -8 9 -12 14 -9 12 7 11 11 -5 17 -10 4 -13 1 -9 -8z"/>
<path d="M17386 10463 c-6 -14 -5 -15 5 -6 7 7 10 15 7 18 -3 3 -9 -2 -12 -12z"/>
<path d="M17364 10429 c-3 -6 -2 -15 4 -21 6 -6 12 -6 17 3 6 8 4 10 -5 4 -10
-6 -12 -4 -7 8 7 19 2 23 -9 6z"/>
<path d="M17309 10344 c-16 -20 7 -25 25 -5 14 15 14 18 1 18 -8 0 -20 -6 -26
-13z"/>
<path d="M17471 9499 c-13 -10 -19 -19 -15 -19 13 1 48 29 43 34 -2 2 -15 -4
-28 -15z"/>
<path d="M17513 9503 c4 -6 2 -13 -5 -16 -7 -2 -5 -3 5 -1 12 2 17 -2 13 -11
-2 -7 1 -16 8 -18 19 -7 9 28 -12 45 -10 8 -13 9 -9 1z"/>
<path d="M17390 9451 c0 -6 4 -11 9 -11 5 0 17 -7 25 -16 15 -14 16 -13 16 13
0 21 -3 24 -9 14 -8 -12 -12 -12 -25 -2 -11 9 -16 10 -16 2z"/>
<path d="M17539 9423 l-24 -28 28 24 c15 14 27 26 27 28 0 8 -8 1 -31 -24z"/>
<path d="M17384 9417 c3 -10 6 -20 6 -23 0 -2 7 -1 16 3 13 5 15 2 10 -14 -4
-13 0 -25 11 -34 16 -13 17 -12 5 2 -7 9 -10 24 -6 33 4 10 -1 18 -12 23 -11
3 -23 11 -27 17 -5 7 -6 4 -3 -7z"/>
<path d="M17576 9412 c-3 -5 1 -9 9 -9 8 0 12 4 9 9 -3 4 -7 8 -9 8 -2 0 -6
-4 -9 -8z"/>
<path d="M17623 9348 c-11 -19 -13 -39 -1 -32 5 3 7 9 4 12 -3 3 -1 11 5 19 6
7 9 13 6 13 -3 0 -9 -6 -14 -12z"/>
<path d="M17469 9306 c6 -7 7 -17 3 -21 -4 -5 -1 -5 6 -1 18 11 38 -4 21 -16
-11 -8 -11 -9 1 -5 14 3 25 47 11 45 -3 0 -8 1 -11 2 -3 1 -13 3 -23 5 -14 3
-16 0 -8 -9z"/>
<path d="M17537 9228 c6 -11 31 -10 37 1 3 5 -5 8 -18 7 -13 0 -22 -4 -19 -8z"/>
<path d="M17600 9230 c-9 -6 -10 -10 -3 -10 6 0 15 5 18 10 8 12 4 12 -15 0z"/>
<path d="M5612 8215 c-87 -27 -160 -96 -205 -192 -20 -43 -22 -64 -22 -198 0
-145 1 -152 29 -209 39 -79 74 -117 143 -152 46 -23 74 -30 135 -33 97 -4 160
16 224 72 68 60 94 121 94 225 0 117 -6 122 -154 122 -125 0 -144 -8 -132 -55
6 -24 8 -25 101 -25 l95 0 0 -62 c0 -113 -66 -183 -182 -195 -77 -8 -132 11
-188 63 -67 63 -83 117 -78 272 3 103 6 124 29 167 69 136 242 172 353 74 25
-22 48 -49 51 -59 16 -51 85 -44 85 8 0 33 -57 107 -111 144 -68 46 -181 60
-267 33z"/>
<path d="M8652 8218 c-9 -9 -12 -108 -12 -384 0 -325 2 -375 16 -388 8 -9 22
-16 29 -16 7 0 21 7 29 16 14 13 16 47 16 219 l0 203 35 30 c57 51 139 65 201
36 62 -30 68 -54 74 -283 4 -180 7 -205 23 -215 12 -8 22 -8 35 0 15 10 17 33
17 237 l0 225 -30 43 c-39 56 -82 80 -154 86 -65 6 -112 -6 -166 -42 l-35 -24
0 119 c0 94 -3 122 -16 134 -18 19 -45 21 -62 4z"/>
<path d="M10155 8221 c-87 -22 -174 -91 -213 -168 -32 -62 -45 -153 -40 -267
7 -132 37 -205 113 -274 69 -63 132 -85 233 -81 105 5 177 41 236 116 65 82
79 141 74 304 -3 121 -6 139 -31 190 -32 67 -100 132 -165 161 -50 23 -157 32
-207 19z m164 -93 c48 -15 105 -70 129 -126 45 -104 37 -295 -16 -382 -53 -85
-168 -128 -271 -100 -62 17 -135 91 -155 161 -21 71 -21 233 0 295 47 138 167
196 313 152z"/>
<path d="M13338 8219 c-10 -5 -23 -19 -29 -30 -15 -29 13 -69 48 -69 50 0 72
66 31 94 -26 19 -27 19 -50 5z"/>
<path d="M14722 8214 c-41 -28 -22 -94 28 -94 60 0 74 71 20 100 -24 13 -21
13 -48 -6z"/>
<path d="M2602 8208 c-21 -21 -13 -43 41 -109 163 -198 225 -277 236 -296 7
-14 11 -80 11 -182 0 -132 3 -162 16 -175 21 -22 40 -20 58 6 13 18 16 54 16
185 l0 163 123 151 c182 224 181 223 168 248 -8 14 -21 21 -39 21 -23 -1 -48
-27 -162 -170 -74 -94 -137 -170 -140 -169 -3 0 -54 63 -115 140 -60 77 -122
153 -137 169 -28 32 -56 38 -76 18z"/>
<path d="M12195 8195 l-25 -24 0 -354 c0 -330 1 -355 18 -370 24 -22 35 -21
55 1 14 15 17 42 17 150 l0 132 123 0 c142 0 204 14 259 60 53 44 78 102 78
185 0 83 -25 141 -78 185 -57 47 -116 60 -279 60 -139 0 -145 -1 -168 -25z
m363 -79 c49 -26 72 -70 72 -141 0 -42 -6 -70 -20 -92 -32 -54 -69 -66 -217
-71 l-133 -5 0 168 0 168 133 -5 c98 -3 140 -9 165 -22z"/>
<path d="M8192 8128 c-9 -9 -12 -89 -12 -298 0 -259 2 -289 19 -320 31 -58 62
-75 149 -78 114 -4 175 32 139 82 -13 17 -19 18 -60 8 -101 -26 -150 -8 -162
60 -3 18 -5 103 -3 188 l3 155 100 5 100 5 0 30 0 30 -100 5 -100 5 -3 55 c-2
30 -8 60 -14 67 -13 16 -40 17 -56 1z"/>
<path d="M15015 8124 c-15 -15 -16 -48 -13 -293 3 -252 5 -279 23 -316 30 -59
75 -85 149 -85 118 0 182 38 138 82 -17 17 -24 18 -58 9 -64 -18 -118 -14
-140 10 -17 19 -19 38 -19 208 l0 186 95 3 c52 2 99 7 104 12 5 5 6 20 2 34
-6 25 -9 25 -104 28 l-97 3 -3 55 c-2 30 -8 60 -14 67 -14 18 -43 16 -63 -3z"/>
<path d="M3480 8021 c-47 -15 -88 -40 -115 -73 -47 -56 -56 -90 -56 -218 0
-100 3 -125 22 -164 68 -146 269 -184 394 -74 62 55 80 107 80 238 0 125 -17
178 -73 232 -59 57 -171 83 -252 59z m167 -97 c61 -46 68 -65 68 -194 0 -132
-7 -151 -76 -198 -29 -20 -44 -23 -96 -20 -55 3 -67 8 -97 37 -40 39 -56 92
-56 183 0 113 28 174 95 204 41 20 129 13 162 -12z"/>
<path d="M4765 8016 c-37 -17 -70 -52 -84 -89 -7 -17 -11 -116 -11 -246 0
-198 2 -219 18 -234 25 -23 38 -21 56 5 13 19 16 58 16 231 0 117 4 216 10
227 14 27 65 41 126 34 37 -5 58 -3 69 6 19 16 19 44 -1 60 -22 19 -162 24
-199 6z"/>
<path d="M6285 8016 c-35 -15 -82 -67 -90 -99 -3 -12 -4 -123 -3 -246 3 -200
5 -225 21 -235 12 -8 22 -8 35 0 15 10 18 36 22 235 3 123 9 230 14 238 17 26
73 41 133 35 47 -5 61 -3 72 10 21 25 0 62 -39 70 -52 10 -133 6 -165 -8z"/>
<path d="M6746 8015 c-62 -24 -102 -61 -131 -120 -26 -52 -27 -61 -24 -178 4
-117 6 -126 34 -173 45 -72 108 -108 202 -112 64 -4 80 -1 129 23 104 51 140
135 132 312 -3 90 -7 105 -33 148 -44 71 -108 107 -199 111 -46 3 -85 -1 -110
-11z m178 -88 c61 -34 76 -74 76 -193 0 -118 -14 -161 -62 -196 -45 -32 -153
-33 -195 -2 -50 36 -63 77 -63 194 0 125 15 163 75 197 53 30 118 30 169 0z"/>
<path d="M11510 8008 c-79 -41 -84 -59 -88 -316 -3 -201 -2 -225 14 -243 19
-21 32 -23 54 -9 12 8 16 49 20 234 5 218 6 226 28 248 20 20 33 23 105 23
l82 0 0 30 c0 39 -32 55 -110 55 -43 0 -74 -6 -105 -22z"/>
<path d="M12984 8020 c-36 -11 -91 -68 -99 -103 -3 -12 -4 -123 -3 -246 3
-200 5 -225 21 -235 12 -8 22 -8 35 0 15 10 18 36 22 230 3 148 9 226 17 241
17 29 45 38 127 38 54 0 71 4 80 17 8 14 6 22 -12 40 -18 18 -35 23 -89 25
-38 1 -82 -2 -99 -7z"/>
<path d="M13760 8018 c-44 -12 -102 -54 -128 -93 -31 -45 -45 -127 -40 -230 5
-100 21 -144 70 -194 47 -48 85 -64 163 -69 58 -4 80 0 123 18 61 26 114 82
130 139 15 47 16 233 2 282 -32 115 -185 186 -320 147z m178 -95 c54 -40 67
-78 67 -193 0 -119 -14 -157 -75 -197 -42 -29 -120 -31 -170 -4 -57 30 -80 87
-80 197 0 127 23 177 95 210 42 20 129 13 163 -13z"/>
<path d="M14360 8008 c-80 -41 -85 -59 -88 -316 -3 -201 -2 -226 14 -243 21
-23 38 -24 58 -3 14 13 16 48 16 229 0 212 0 214 24 242 23 27 29 28 108 28
82 0 83 0 86 26 4 38 -20 52 -101 56 -61 4 -79 1 -117 -19z"/>
<path d="M3989 7999 c-7 -15 -10 -83 -7 -218 3 -175 6 -200 25 -236 27 -51 47
-69 108 -96 88 -39 270 -13 337 48 16 15 18 38 18 258 0 253 -2 265 -45 265
-43 0 -45 -13 -45 -248 l0 -223 -37 -16 c-59 -26 -161 -28 -202 -5 -64 35 -71
62 -71 277 0 135 -4 195 -12 203 -19 19 -56 14 -69 -9z"/>
<path d="M7217 8013 c-4 -3 -7 -17 -7 -30 0 -28 125 -488 142 -520 15 -31 62
-49 93 -35 39 18 51 47 109 267 61 230 65 240 71 234 2 -3 27 -94 55 -204 66
-260 74 -280 110 -295 35 -14 84 1 100 30 5 9 34 109 65 221 31 112 63 225 71
251 12 35 13 52 4 67 -12 23 -52 28 -68 9 -5 -7 -37 -121 -72 -253 -34 -132
-63 -242 -66 -244 -5 -5 -9 9 -39 124 -103 396 -98 385 -161 385 -61 0 -70
-16 -135 -270 -33 -129 -62 -237 -64 -239 -3 -2 -7 2 -9 10 -6 18 -89 322
-111 409 -9 36 -21 71 -27 78 -11 13 -50 16 -61 5z"/>
<path d="M10752 8008 c-9 -9 -12 -70 -12 -212 0 -173 3 -206 19 -241 24 -53
63 -90 117 -111 88 -34 277 -2 328 55 14 16 16 50 14 261 -3 219 -5 244 -20
254 -13 8 -23 8 -35 0 -16 -10 -19 -36 -23 -240 l-5 -228 -45 -18 c-57 -21
-138 -23 -189 -2 -64 26 -71 51 -71 272 0 160 -3 193 -16 206 -18 19 -45 21
-62 4z"/>
<path d="M13320 8001 c-6 -12 -10 -118 -10 -273 0 -213 2 -257 16 -276 18 -27
36 -28 57 -4 15 16 17 51 17 283 0 193 -3 268 -12 277 -18 18 -56 14 -68 -7z"/>
<path d="M14722 8008 c-9 -9 -12 -85 -12 -279 0 -230 2 -270 16 -283 21 -22
40 -20 58 6 24 34 24 529 0 552 -18 19 -45 21 -62 4z"/>
<path d="M15432 8008 c-6 -6 -12 -18 -12 -25 0 -8 48 -123 106 -256 58 -133
106 -249 107 -257 2 -31 -38 -93 -89 -138 -55 -48 -67 -79 -40 -101 24 -20 64
-1 118 58 63 69 81 107 257 538 51 126 60 156 51 173 -15 27 -56 26 -72 -2 -6
-13 -46 -108 -88 -213 -42 -104 -80 -189 -85 -188 -5 0 -50 95 -100 210 -80
184 -94 208 -116 211 -13 2 -30 -3 -37 -10z"/>
<path d="M9318 7569 c-13 -7 -18 -23 -18 -59 0 -63 7 -80 34 -80 34 0 46 20
46 75 0 67 -21 89 -62 64z"/>
<path d="M15988 7566 c-21 -16 -25 -105 -6 -124 18 -18 56 -14 68 7 15 29 12
83 -6 109 -17 25 -31 27 -56 8z"/>
</g>
</svg>
